<svg width="25" height="25" viewBox="0 0 25 25" fill="none" xmlns="http://www.w3.org/2000/svg">
<rect x="0.5" y="0.5" width="24" height="24" rx="12" stroke="#619F49"/>
<path d="M6.82968 9.34539L6.00951 8.66165V9.72944V16.5617C6.00951 16.8235 6.1634 17.0071 6.29595 17.1039C6.43411 17.2048 6.60582 17.2595 6.78037 17.2595H18.2197C18.3942 17.2595 18.5659 17.2048 18.704 17.104C18.8364 17.0073 18.9904 16.8239 18.9906 16.5621V16.5618V9.72929V8.6615L18.1704 9.34524L12.9965 13.6585L13.2585 13.9728L12.9965 13.6585C12.9808 13.6716 12.9593 13.6797 12.9368 13.6798C12.9368 13.6798 12.9368 13.6798 12.9368 13.6798L12.0631 13.6797H12.063C12.0404 13.6797 12.019 13.6716 12.0034 13.6586L12.0034 13.6585L6.82968 9.34539ZM12.1792 13.0833L12.5 13.3516L12.8208 13.0833L17.8529 8.87402L18.9091 7.99051H17.5321H7.46796H6.09093L7.14716 8.87402L12.1792 13.0833ZM6.78037 7.5H18.2197C18.9505 7.5 19.5 8.0582 19.5 8.68831V16.5617C19.5 17.1918 18.9505 17.75 18.2197 17.75H6.78037C6.04948 17.75 5.5 17.1918 5.5 16.5617V8.68831C5.5 8.05821 6.04948 7.5 6.78037 7.5Z" stroke="#619F49"/>
</svg>
