<svg width="26" height="25" viewBox="0 0 26 25" fill="none" xmlns="http://www.w3.org/2000/svg">
<rect x="0.916626" width="25" height="25" rx="12.5" fill="#619F49"/>
<path d="M19.4048 9.99517C19.4048 10.1304 19.4048 10.2657 19.4048 10.3816C19.4048 14.3816 16.3028 19 10.6483 19C8.90092 19 7.29097 18.4976 5.91663 17.6473C6.15223 17.6667 6.40746 17.686 6.64307 17.686C8.07631 17.686 9.41139 17.2029 10.4716 16.3913C9.11689 16.372 7.97814 15.4831 7.60511 14.285C7.80144 14.3237 7.97814 14.343 8.19411 14.343C8.46898 14.343 8.74385 14.3043 8.99909 14.2271C7.58547 13.9565 6.52526 12.7391 6.52526 11.2705C6.52526 11.2512 6.52526 11.2512 6.52526 11.2319C6.93757 11.4638 7.40877 11.599 7.91924 11.6184C7.09464 11.0773 6.5449 10.1498 6.5449 9.08696C6.5449 8.52657 6.70197 8.00483 6.9572 7.56039C8.46898 9.39614 10.7465 10.5942 13.2988 10.7295C13.2399 10.5169 13.2203 10.2657 13.2203 10.0338C13.2203 8.35266 14.5946 7 16.3028 7C17.1863 7 17.9912 7.36715 18.541 7.94686C19.2478 7.81159 19.8957 7.56039 20.5043 7.21256C20.2687 7.92754 19.7779 8.50725 19.1496 8.89372C19.7779 8.81643 20.3669 8.66184 20.9166 8.41063C20.524 9.02899 20.0135 9.57005 19.4048 9.99517Z" fill="white"/>
</svg>
