<svg width="25" height="25" viewBox="0 0 25 25" fill="none" xmlns="http://www.w3.org/2000/svg">
<rect x="0.5" y="0.5" width="24" height="24" rx="12" stroke="#619F49"/>
<path d="M6.90065 5.49395L7.19304 5.78765L7.19478 5.78592L7.20055 5.78054C7.42188 5.57368 7.71112 5.40945 8.04824 5.40728C8.05049 5.40727 8.05274 5.40726 8.05499 5.40726C8.4618 5.40726 8.75311 5.6428 8.89475 5.7824C8.89671 5.78433 8.89864 5.78624 8.90054 5.78813L8.9004 5.78827L8.90054 5.78813L8.90473 5.79231L9.81349 6.11895C9.61098 5.91062 9.39834 5.69556 9.17895 5.49395C8.85155 5.17137 8.46002 5 8.04824 5C7.63646 5 7.23818 5.17137 6.90065 5.49395ZM6.90065 5.49395L7.1661 5.7717L6.8939 5.50067L6.90065 5.49395ZM16.3224 19.4944C16.39 19.4976 16.4489 19.5 16.4999 19.5C16.501 19.5 16.5021 19.5 16.5032 19.5C17.1404 19.4992 17.6544 19.2794 18.0657 18.8428C18.0665 18.8418 18.0674 18.8408 18.0682 18.8398C18.0687 18.8393 18.0691 18.8388 18.0695 18.8383C18.0713 18.8362 18.073 18.8342 18.0748 18.8322L18.076 18.8307C18.0776 18.8288 18.0792 18.8269 18.0808 18.825C18.261 18.6085 18.4646 18.4126 18.6544 18.23C18.6706 18.2144 18.6867 18.1989 18.7027 18.1835C18.7033 18.1829 18.7039 18.1823 18.7046 18.1817L18.7061 18.1802L18.7073 18.179L18.7073 18.179C18.7808 18.1093 18.8543 18.0386 18.9271 17.9668C18.9087 17.9716 18.8906 17.9756 18.8738 17.9784C18.7685 17.967 18.6303 17.8906 18.5198 17.7967C18.5135 17.8028 18.5071 17.809 18.5007 17.8152C18.4754 17.8397 18.4497 17.8645 18.4238 17.8898C18.2044 18.0981 17.9816 18.3165 17.7723 18.5618C17.4314 18.9247 17.0298 19.0961 16.5032 19.0961C16.4526 19.0961 16.3986 19.0961 16.348 19.0927M16.3224 19.4944L6.39099 7.29167C6.11085 7.57056 5.95896 7.89651 5.92521 8.28965C5.87458 8.90457 5.98934 9.55645 6.30323 10.3931M16.3224 19.4944L16.348 19.0927M16.3224 19.4944L16.3213 19.4943L16.348 19.0927M16.348 19.0927C15.3455 19.0289 14.414 18.6391 13.7153 18.3065C11.8049 17.3858 10.1274 16.0786 8.73341 14.422C7.58245 13.041 6.8129 11.7641 6.30323 10.3931M6.30323 10.3931L5.91595 10.5384L5.51206 8.25842C5.44092 9.12487 5.69761 9.95222 5.91448 10.5345L5.91449 10.5345C5.91483 10.5354 5.91517 10.5364 5.91552 10.5373L6.30323 10.3931ZM19.1983 17.824C19.4218 17.5916 19.5942 17.2971 19.5933 16.9477C19.5933 16.947 19.5933 16.9463 19.5933 16.9456C19.5918 16.5987 19.42 16.3094 19.1943 16.0831C19.1936 16.0824 19.193 16.0818 19.1923 16.0811C19.1896 16.0784 19.1869 16.0757 19.1841 16.073C19.1838 16.0727 19.1835 16.0723 19.1832 16.072L17.336 14.233L17.3306 14.2277L19.1983 17.824ZM19.3918 17.3962C19.3487 17.2598 19.2274 17.1289 19.0858 17.0401C19.1203 16.8335 19.036 16.6291 18.8322 16.4281L19.3918 17.3962ZM18.8355 17.4798C18.7881 17.5307 18.7402 17.5798 18.6916 17.6284C18.8186 17.7253 18.9726 17.7894 19.1037 17.7888C19.1102 17.7821 19.1167 17.7754 19.1232 17.7687C19.125 17.7668 19.1268 17.7649 19.1286 17.7631C19.1289 17.7627 19.1293 17.7623 19.1296 17.762L19.1306 17.7609C19.1316 17.7599 19.1326 17.7589 19.1336 17.7578C19.1458 17.7451 19.1577 17.7323 19.1693 17.7195C19.2317 17.6505 19.2845 17.5806 19.3284 17.5104C19.3303 17.4666 19.3299 17.4174 19.3249 17.3777C19.2887 17.2876 19.1867 17.1818 19.0719 17.102C19.0366 17.2273 18.9578 17.3534 18.8355 17.4798ZM18.1014 18.8039L18.1005 18.8048C18.1012 18.804 18.1019 18.8034 18.1014 18.8039ZM7.24745 5.85424L7.24956 5.85213C7.24956 5.85213 7.24957 5.85213 7.24957 5.85212L7.24745 5.85424ZM8.83388 5.85589L8.5579 6.15255L8.83388 5.85589Z" stroke="#619F49"/>
</svg>
