<svg width="26" height="25" viewBox="0 0 26 25" fill="none" xmlns="http://www.w3.org/2000/svg">
<rect x="0.916626" width="25" height="25" rx="12.5" fill="#619F49"/>
<path fill-rule="evenodd" clip-rule="evenodd" d="M21.3675 8.61168C21.4834 8.22539 21.3675 7.94147 20.8161 7.94147H18.9928C18.5291 7.94147 18.3155 8.18671 18.1996 8.45721C18.1996 8.45721 17.2723 10.7172 15.9587 12.1853C15.5337 12.6103 15.3406 12.7453 15.1088 12.7453C14.9929 12.7453 14.8251 12.6103 14.8251 12.224V8.61168C14.8251 8.14803 14.6906 7.94147 14.3042 7.94147H11.4389C11.1493 7.94147 10.975 8.15662 10.975 8.36058C10.975 8.80013 11.6317 8.90146 11.6994 10.1377V12.8228C11.6994 13.4115 11.5931 13.5183 11.3613 13.5183C10.7432 13.5183 9.23969 11.248 8.34782 8.65036C8.17304 8.14542 7.99773 7.94147 7.53174 7.94147H5.7084C5.18744 7.94147 5.08325 8.18671 5.08325 8.45721C5.08325 8.94014 5.70149 11.3355 7.96153 14.5034C9.46839 16.6667 11.591 17.8396 13.5227 17.8396C14.6818 17.8396 14.8251 17.5791 14.8251 17.1305V15.4953C14.8251 14.9744 14.9349 14.8704 15.3018 14.8704C15.5724 14.8704 16.0359 15.0056 17.1178 16.0487C18.3541 17.2848 18.5578 17.8396 19.2532 17.8396H21.0766C21.5975 17.8396 21.858 17.5791 21.7077 17.0651C21.5433 16.5527 20.9531 15.8096 20.1698 14.9284C19.7449 14.4261 19.1074 13.8852 18.9143 13.6148C18.6438 13.2671 18.7211 13.1126 18.9143 12.8037C18.9143 12.8037 21.1357 9.67429 21.3675 8.61181V8.61168Z" fill="white"/>
</svg>
